<svg xmlns="http://www.w3.org/2000/svg" width="1024" height="1024" viewBox="0 0 1024 1024">
  <g fill="none">
    <rect width="1024" height="1024" fill="#ADADAD" rx="137.34"/>
    <polygon fill="#000" points="683.648 508.576 466.416 707.487 715.709 975.755 690.191 975.755 451.367 717.956 350.603 808.905 350.603 975.755 334.899 975.755 334.899 508.576 350.603 508.576 350.603 788.622 658.784 508.576"/>
    <path fill="#000" d="M933.584835,533.439659 C958.448733,556.340618 971.534995,585.784707 971.534995,622.426241 C971.534995,678.697167 946.671097,714.684388 896.943301,731.696528 C923.115825,740.202599 943.399531,754.597487 958.448733,774.881193 C973.497934,794.510586 981.349691,818.065857 981.349691,845.547007 C981.349691,886.768733 966.954803,920.138701 938.81934,946.311225 C910.683876,971.829436 874.696656,984.915698 830.857678,984.915698 C794.216145,984.915698 762.154803,975.101001 735.982279,955.471608 C701.303685,929.299084 682.328605,890.694611 679.057039,838.349563 L694.106241,838.349563 C696.723493,884.805793 713.735634,919.484388 745.142662,943.039659 C768.697934,960.706113 797.48771,969.866496 830.857678,969.866496 C870.770777,969.866496 903.486432,958.08886 928.35033,935.187902 C953.214228,911.63263 965.646177,882.188541 965.646177,845.547007 C965.646177,814.139979 954.522854,788.621768 932.276209,768.992375 C910.029563,749.362982 880.585474,739.548285 845.252567,739.548285 L798.796337,739.548285 L798.796337,723.844771 L839.363749,723.844771 C876.659595,723.844771 905.449372,714.684388 925.733078,697.017934 C945.362471,679.35148 955.83148,654.487583 955.83148,622.426241 C955.83148,591.019212 944.708158,565.501001 923.770138,545.871608 C900.86918,524.933589 871.425091,515.118892 834.783557,515.118892 C798.142023,515.118892 768.697934,525.587902 746.451289,547.834547 C724.204643,568.772567 710.464068,598.216656 705.883876,635.512503 L690.180362,635.512503 C694.760554,593.636464 709.809755,560.920809 735.327966,536.056912 C760.191864,511.193014 793.561832,499.415378 834.783557,499.415378 C875.350969,499.458999 908.720937,510.538701 933.584835,533.439659 Z"/>
  </g>
</svg>
